<?xml version="1.0" encoding="UTF-8"?>
<svg width="195px" height="195px" viewBox="0 0 195 195" version="1.1" xmlns="http://www.w3.org/2000/svg" xmlns:xlink="http://www.w3.org/1999/xlink">
    <title>Group</title>
    <defs>
        <linearGradient x1="6.33333333%" y1="92.316856%" x2="93.3333333%" y2="5.79140193%" id="linearGradient-1">
            <stop stop-color="#00AEE9" offset="0%"></stop>
            <stop stop-color="#69FABD" offset="100%"></stop>
        </linearGradient>
    </defs>
    <g id="Page-1" stroke="none" stroke-width="1" fill="none" fill-rule="evenodd">
        <g id="Group">
            <rect id="Rectangle" fill="#FFFFFF" x="0" y="0" width="195" height="195" rx="97.5"></rect>
            <g id="harmony-one-logo" transform="translate(32.000000, 32.000000)" fill="url(#linearGradient-1)" fill-rule="nonzero">
                <path d="M101.956111,-8.62997807e-06 C86.495581,-0.0120022521 73.9448318,12.4967387 73.905,27.9572222 L73.905,58.955 C71.0161111,59.15 68.0622222,59.2727778 65,59.2727778 C61.9377778,59.2727778 58.9983333,59.3955556 56.095,59.5688889 L56.095,27.9572222 C55.8492395,12.6424799 43.3642141,0.356198123 28.0475,0.356198123 C12.7307859,0.356198123 0.245760463,12.6424799 -2.84217094e-14,27.9572222 L-2.84217094e-14,102.042778 C0.245760463,117.35752 12.7307859,129.643802 28.0475,129.643802 C43.3642141,129.643802 55.8492395,117.35752 56.095,102.042778 L56.095,71.045 C58.9838889,70.85 61.9377778,70.7272222 65,70.7272222 C68.0622222,70.7272222 71.0016667,70.6044444 73.905,70.4311111 L73.905,102.042778 C74.1507605,117.35752 86.6357859,129.643802 101.9525,129.643802 C117.269214,129.643802 129.75424,117.35752 130,102.042778 L130,27.9572222 C129.960173,12.4995599 117.413823,-0.00801714838 101.956111,-8.62997807e-06 Z M28.0438889,11.4544428 C37.1679765,11.4504306 44.5733276,18.833165 44.5972222,27.9572222 L44.5972222,60.7822222 C36.391203,61.97132 28.3777327,64.2369466 20.7638889,67.5205556 C17.4650222,68.9683866 14.3595799,70.8219474 11.5194444,73.0383333 L11.5194444,27.9572222 C11.5433026,18.8444348 18.931078,11.4663462 28.0438889,11.4544428 Z M44.5972222,102.042778 C44.5972222,111.184931 37.1860424,118.596111 28.0438889,118.596111 C18.9017353,118.596111 11.4905556,111.184931 11.4905556,102.042778 L11.4905556,94.6111111 C11.4905556,88.0461111 16.6905556,81.8277778 25.4077778,77.9566667 C31.5500937,75.3067126 37.9949246,73.4220179 44.5972222,72.345 L44.5972222,102.042778 L44.5972222,102.042778 Z M101.956111,118.545557 C92.8320235,118.549569 85.4266724,111.166835 85.4027778,102.042778 L85.4027778,69.2177778 C93.608797,68.02868 101.622267,65.7630534 109.236111,62.4794444 C112.534978,61.0316134 115.64042,59.1780526 118.480556,56.9616667 L118.480556,102.042778 C118.456697,111.155565 111.068922,118.533654 101.956111,118.545557 L101.956111,118.545557 Z M104.592222,52 C98.4499063,54.6499541 92.0050754,56.5346487 85.4027778,57.6116667 L85.4027778,27.9572222 C85.4027778,18.8150687 92.8139576,11.4038889 101.956111,11.4038889 C111.098265,11.4038889 118.509444,18.8150687 118.509444,27.9572222 L118.509444,35.3888889 C118.509444,41.925 113.309444,48.1433333 104.592222,52 Z" id="Shape"></path>
            </g>
        </g>
    </g>
</svg>